<svg id="journal-check" xmlns="http://www.w3.org/2000/svg" width="27.706" height="29.553" viewBox="0 0 27.706 29.553">
  <path id="Tracciato_64996" data-name="Tracciato 64996" d="M15.39,6.27a.924.924,0,0,1,0,1.308L9.849,13.119a.924.924,0,0,1-1.308,0L5.77,10.349A.925.925,0,1,1,7.078,9.041L9.195,11.16,14.082,6.27a.924.924,0,0,1,1.308,0" transform="translate(4.658 5.082)" fill="#006cb4" fill-rule="evenodd"/>
  <path id="Tracciato_64997" data-name="Tracciato 64997" d="M4.694,0H23.165a3.694,3.694,0,0,1,3.694,3.694V25.859a3.694,3.694,0,0,1-3.694,3.694H4.694A3.694,3.694,0,0,1,1,25.859V24.012H2.847v1.847a1.847,1.847,0,0,0,1.847,1.847H23.165a1.847,1.847,0,0,0,1.847-1.847V3.694a1.847,1.847,0,0,0-1.847-1.847H4.694A1.847,1.847,0,0,0,2.847,3.694V5.541H1V3.694A3.694,3.694,0,0,1,4.694,0" transform="translate(0.847 0)" fill="#006cb4"/>
  <path id="Tracciato_64998" data-name="Tracciato 64998" d="M1.847,5.847V4.924a.924.924,0,0,1,1.847,0v.924h.924a.924.924,0,0,1,0,1.847H.924a.924.924,0,0,1,0-1.847Zm0,5.541v-.924a.924.924,0,1,1,1.847,0v.924h.924a.924.924,0,1,1,0,1.847H.924a.924.924,0,0,1,0-1.847Zm0,5.541v-.924a.924.924,0,1,1,1.847,0v.924h.924a.924.924,0,1,1,0,1.847H.924a.924.924,0,0,1,0-1.847Z" transform="translate(0 3.388)" fill="#006cb4"/>
  <path id="Icon_awesome-check" data-name="Icon awesome-check" d="M5.709,16.865.246,11.4a.84.84,0,0,1,0-1.189L1.435,9.025a.84.84,0,0,1,1.189,0l3.68,3.68,7.882-7.882a.84.84,0,0,1,1.189,0l1.188,1.189a.84.84,0,0,1,0,1.189L6.9,16.865A.84.84,0,0,1,5.709,16.865Z" transform="translate(8.243 9.194)" fill="#b8191a"/>
</svg>
