<svg xmlns="http://www.w3.org/2000/svg" width="19.278" height="19.278" viewBox="0 0 19.278 19.278">
  <g id="Raggruppa_11932" data-name="Raggruppa 11932" transform="translate(-3.4 -4.3)">
    <g id="Group_5938" data-name="Group 5938" transform="translate(3.4 4.3)">
      <circle id="Ellipse_25" data-name="Ellipse 25" cx="9.116" cy="9.116" r="9.116" transform="translate(0.452 0.471)" fill="#73d7ff"/>
      <g id="Group_5937" data-name="Group 5937">
        <g id="Group_5936" data-name="Group 5936">
          <path id="Path_2911" data-name="Path 2911" d="M13.039,4.3a9.639,9.639,0,1,0,9.639,9.639A9.615,9.615,0,0,0,13.039,4.3Zm0,18.407a8.826,8.826,0,1,1,8.826-8.826,8.822,8.822,0,0,1-8.826,8.826Z" transform="translate(-3.4 -4.3)" fill="#0058a3"/>
        </g>
      </g>
    </g>
    <g id="Raggruppa_7475" data-name="Raggruppa 7475" transform="translate(11.297 6.623)">
      <g id="Raggruppa_7474" data-name="Raggruppa 7474">
        <path id="Tracciato_59861" data-name="Tracciato 59861" d="M17.774,22.387v-8.71h2.5v8.71Zm1.219-10.742a1.2,1.2,0,0,1-.987-.406,1.36,1.36,0,0,1-.406-.987,1.2,1.2,0,0,1,.406-.987,1.092,1.092,0,0,1,.987-.465,1.2,1.2,0,0,1,.987.406,1.647,1.647,0,0,1,.406.987,1.2,1.2,0,0,1-.406.987A1.577,1.577,0,0,1,18.994,11.645Z" transform="translate(-17.252 -8.51)" fill="#f8fcff"/>
        <path id="Tracciato_59862" data-name="Tracciato 59862" d="M18.742,8.881a1.146,1.146,0,0,1,.813.348,1.054,1.054,0,0,1,.348.813,1.146,1.146,0,0,1-.348.813,1.387,1.387,0,0,1-.813.29,1.146,1.146,0,0,1-.813-.348,1.054,1.054,0,0,1-.348-.813,1.146,1.146,0,0,1,.348-.813,1.387,1.387,0,0,1,.813-.29m.929,4.877v8.129H17.755V13.758h1.916M18.742,8.3a1.725,1.725,0,0,0-1.219,2.961,1.725,1.725,0,1,0,2.439-2.439A1.671,1.671,0,0,0,18.742,8.3Zm1.51,4.877H17.174v9.29h3.077v-9.29Z" transform="translate(-17 -8.3)" fill="#0058a3"/>
      </g>
    </g>
  </g>
</svg>
