<svg id="Raggruppa_11729" data-name="Raggruppa 11729" xmlns="http://www.w3.org/2000/svg" xmlns:xlink="http://www.w3.org/1999/xlink" width="13.499" height="12" viewBox="0 0 13.499 12">
  <defs>
    <clipPath id="clip-path">
      <rect id="Rettangolo_146231" data-name="Rettangolo 146231" width="13.499" height="12" fill="none"/>
    </clipPath>
  </defs>
  <g id="Raggruppa_11729-2" data-name="Raggruppa 11729" clip-path="url(#clip-path)">
    <path id="Tracciato_64780" data-name="Tracciato 64780" d="M13.5,5.988a.757.757,0,0,1-.75.752H12l.016,3.752a1.685,1.685,0,0,1-.012.19v.38a.937.937,0,0,1-.937.938h-.375c-.026,0-.052-.021-.077,0-.033-.019-.066,0-.1,0H9.188a.937.937,0,0,1-.937-.937V9a.749.749,0,0,0-.75-.75H6A.749.749,0,0,0,5.25,9v2.063A.937.937,0,0,1,4.313,12H3c-.035,0-.07,0-.105,0s-.056,0-.084,0H2.438a.937.937,0,0,1-.937-.937V8.438c0-.021,0-.045,0-.066V6.741H.751A.743.743,0,0,1,0,5.988a.761.761,0,0,1,.235-.562L6.244.188A.675.675,0,0,1,6.759,0a.788.788,0,0,1,.495.164l5.984,5.261a.636.636,0,0,1,.258.563"/>
  </g>
</svg>
