<?xml version="1.0" encoding="UTF-8" standalone="no"?>
<svg
   id="journal-check"
   width="27.706"
   height="29.553"
   viewBox="0 0 27.706 29.553"
   version="1.1"
   sodipodi:docname="ispezioni.svg"
   xml:space="preserve"
   inkscape:version="1.4 (86a8ad7, 2024-10-11)"
   xmlns:inkscape="http://www.inkscape.org/namespaces/inkscape"
   xmlns:sodipodi="http://sodipodi.sourceforge.net/DTD/sodipodi-0.dtd"
   xmlns="http://www.w3.org/2000/svg"
   xmlns:svg="http://www.w3.org/2000/svg"><defs
     id="defs1"><linearGradient
       id="swatch1"
       inkscape:swatch="solid"><stop
         style="stop-color:#2e578d;stop-opacity:1;"
         offset="0"
         id="stop1" /></linearGradient></defs><sodipodi:namedview
     id="namedview1"
     pagecolor="#ffffff"
     bordercolor="#000000"
     borderopacity="0.25"
     inkscape:showpageshadow="2"
     inkscape:pageopacity="0.0"
     inkscape:pagecheckerboard="0"
     inkscape:deskcolor="#d1d1d1"
     inkscape:zoom="26.156397"
     inkscape:cx="13.839826"
     inkscape:cy="14.7765"
     inkscape:window-width="1578"
     inkscape:window-height="1701"
     inkscape:window-x="3192"
     inkscape:window-y="0"
     inkscape:window-maximized="0"
     inkscape:current-layer="journal-check" /><path
     id="Tracciato_64996"
     data-name="Tracciato 64996"
     d="m 21.010679,13.640029 a 0.8078449,0.8078449 0 0 1 0,1.143573 l -4.844446,4.844446 a 0.8078449,0.8078449 0 0 1 -1.143573,0 L 12.6,17.206262 a 0.80871919,0.80871919 0 1 1 1.143572,-1.143572 l 1.850875,1.852622 4.27266,-4.275283 a 0.8078449,0.8078449 0 0 1 1.143572,0"
     fill="#006cb4"
     fill-rule="evenodd"
     style="stroke-width:0.874291" /><path
     id="Tracciato_64997"
     data-name="Tracciato 64997"
     d="M 8.3273396,3.7150776 H 24.476369 A 3.229631,3.229631 0 0 1 27.706,6.9447086 V 26.323369 A 3.229631,3.229631 0 0 1 24.476369,29.553 H 8.3273396 a 3.229631,3.229631 0 0 1 -3.229631,-3.229631 v -1.614816 h 1.6148155 v 1.614816 a 1.6148155,1.6148155 0 0 0 1.6148155,1.614815 H 24.476369 a 1.6148155,1.6148155 0 0 0 1.614815,-1.614815 V 6.9447086 A 1.6148155,1.6148155 0 0 0 24.476369,5.3298931 H 8.3273396 A 1.6148155,1.6148155 0 0 0 6.7125241,6.9447086 V 8.5595241 H 5.0977086 V 6.9447086 a 3.229631,3.229631 0 0 1 3.229631,-3.229631"
     fill="#006cb4"
     style="stroke-width:0.874291" /><path
     id="Tracciato_64998"
     data-name="Tracciato 64998"
     d="m 5.0977086,11.789155 v -0.80697 a 0.8078449,0.8078449 0 0 1 1.6148155,0 v 0.807844 H 7.520369 a 0.8078449,0.8078449 0 0 1 0,1.614816 H 4.290738 a 0.8078449,0.8078449 0 0 1 0,-1.614816 z m 0,4.844447 v -0.807845 a 0.8078449,0.8078449 0 1 1 1.6148155,0 v 0.807845 H 7.520369 a 0.8078449,0.8078449 0 1 1 0,1.614815 H 4.290738 a 0.8078449,0.8078449 0 0 1 0,-1.614815 z m 0,4.844446 v -0.807845 a 0.8078449,0.8078449 0 1 1 1.6148155,0 v 0.807845 H 7.520369 a 0.8078449,0.8078449 0 1 1 0,1.614816 H 4.290738 a 0.8078449,0.8078449 0 0 1 0,-1.614816 z"
     fill="#006cb4"
     style="stroke-width:0.874291" /><path
     id="Icon_awesome-check"
     data-name="Icon awesome-check"
     d="m 15.681001,26.498227 -4.776251,-4.778 a 0.73440445,0.73440445 0 0 1 0,-1.039532 l 1.039532,-1.036909 a 0.73440445,0.73440445 0 0 1 1.039532,0 l 3.217391,3.217391 6.891161,-6.891162 a 0.73440445,0.73440445 0 0 1 1.039532,0 l 1.038658,1.039532 a 0.73440445,0.73440445 0 0 1 0,1.039532 l -8.448274,8.449148 a 0.73440445,0.73440445 0 0 1 -1.041281,0 z"
     fill="#b8191a"
     style="stroke-width:0.874291" /><g
     id="Raggruppa_7749"
     data-name="Raggruppa 7749"
     transform="matrix(0.40667055,0,0,0.40667055,0.47311305,0.5082915)"
     style="fill:#b8191a;fill-opacity:1"><path
       id="Tracciato_60122"
       data-name="Tracciato 60122"
       d="m 34.731,8 a 6.7315,6.7315 0 1 0 0,13.463 v 0 A 6.7315,6.7315 0 1 0 34.731,8 Z"
       transform="translate(-22.711,-8)"
       fill="none"
       stroke="#b8191a"
       stroke-width="2"
       style="fill:#b8191a;fill-opacity:1" /><path
       id="Tracciato_60123"
       data-name="Tracciato 60123"
       d="m 24.912,50.8 a 8.981,8.981 0 0 1 -9.793,0 A 8.7,8.7 0 0 0 8,59.122 v 2.067 H 32.032 V 59.122 A 8.7,8.7 0 0 0 24.912,50.8 Z"
       transform="translate(-8,-32.857)"
       fill="none"
       stroke="#b8191a"
       stroke-width="2"
       style="fill:#b8191a;fill-opacity:1" /></g></svg>
