<svg xmlns="http://www.w3.org/2000/svg" xmlns:xlink="http://www.w3.org/1999/xlink" width="131.836" height="62" viewBox="0 0 131.836 62">
  <defs>
    <clipPath id="clip-path">
      <rect id="Rettangolo_146200" data-name="Rettangolo 146200" width="38.334" height="38.334" fill="#006cb4"/>
    </clipPath>
  </defs>
  <g id="Raggruppa_11929" data-name="Raggruppa 11929" transform="translate(-56.726 -4)">
    <g id="Raggruppa_10733" data-name="Raggruppa 10733" transform="translate(56.726 4)">
      <g id="Raggruppa_7861" data-name="Raggruppa 7861" transform="translate(0 0)">
        <path id="Tracciato_60413" data-name="Tracciato 60413" d="M55.563,14.124a.911.911,0,0,0-.506-.821l-6.621-3.26L48.422,3.96A1.121,1.121,0,0,0,47.3,2.841l-3.669.008a1.122,1.122,0,0,0-1.12,1.124l.007,3.158L28.218.092A.908.908,0,0,0,27.792,0h-.014a.907.907,0,0,0-.427.094L.571,13.422a.906.906,0,0,0-.447.5A.883.883,0,0,0,0,14.367V27.05a.892.892,0,0,0,1.785,0V14.856L27.79,1.913,53.816,14.726V27.05a.892.892,0,1,0,1.785,0V14.367a.883.883,0,0,0-.038-.243" transform="translate(0 12.62)" fill="#006cb4"/>
        <text id="CIT" transform="translate(59.836 49)" fill="#006cb4" font-size="46" font-family="OpenSans-Bold, Open Sans" font-weight="700"><tspan x="0" y="0">CIT</tspan></text>
      </g>
    </g>
    <g id="Raggruppa_10734" data-name="Raggruppa 10734" transform="translate(65.136 25.629)">
      <g id="Raggruppa_7862" data-name="Raggruppa 7862" clip-path="url(#clip-path)">
        <path id="Tracciato_60414" data-name="Tracciato 60414" d="M65.589,0a9.04,9.04,0,0,0-9.03,9.03c0,.209.008.422.023.636a9.564,9.564,0,0,1,8.371,8.371c.213.015.426.023.636.023A9.03,9.03,0,1,0,65.589,0m2.673,5.464.59-.589a.321.321,0,0,1,.453.453l-.59.59a.321.321,0,0,1-.453-.453M65.588,3.79a.322.322,0,0,1,.322-.322.318.318,0,0,1,.065.007.322.322,0,0,1,.257.315v.834a.322.322,0,1,1-.643,0ZM62.515,4.874a.321.321,0,0,1,.455,0l.59.589a.322.322,0,0,1-.455.455l-.589-.59a.321.321,0,0,1,0-.455M61.431,8.59a.322.322,0,0,1,0-.643h.834a.322.322,0,1,1,0,.643Zm2.129,2.484-.59.589a.322.322,0,0,1-.455-.455l.589-.589a.322.322,0,0,1,.455.455m2.672,1.674a.322.322,0,0,1-.643,0v-.834a.322.322,0,1,1,.643,0Zm-.322-1.564A2.884,2.884,0,1,1,68.794,8.3a2.884,2.884,0,0,1-2.884,2.884m3.395.48a.32.32,0,0,1-.453,0l-.59-.59a.321.321,0,1,1,.453-.453l.59.589a.321.321,0,0,1,0,.453M70.39,8.589h-.834a.321.321,0,0,1,0-.641h.834a.321.321,0,0,1,0,.641" transform="translate(-46.422 0)" fill="#006cb4"/>
        <path id="Tracciato_60415" data-name="Tracciato 60415" d="M106.937,65.835V65a.32.32,0,0,1,.321-.32v0a.322.322,0,0,0-.322.322v.834a.321.321,0,0,0,.142.267.321.321,0,0,1-.141-.266" transform="translate(-87.769 -53.086)" fill="#006cb4"/>
        <path id="Tracciato_60416" data-name="Tracciato 60416" d="M107.258,20.855v0a.32.32,0,0,1-.321-.32V19.7a.321.321,0,0,1,.256-.314.322.322,0,0,0-.257.315v.834a.322.322,0,0,0,.322.322" transform="translate(-87.769 -15.91)" fill="#006cb4"/>
        <path id="Tracciato_60417" data-name="Tracciato 60417" d="M107.73,72.613a.319.319,0,0,0,.179.055h0a.32.32,0,0,1-.179-.055" transform="translate(-88.421 -59.598)" fill="#006cb4"/>
        <path id="Tracciato_60418" data-name="Tracciato 60418" d="M108.731,64.679v0a.32.32,0,0,1,.32.32v.834a.32.32,0,0,1-.141.266.321.321,0,0,0,.142-.267V65a.322.322,0,0,0-.322-.322" transform="translate(-89.242 -53.086)" fill="#006cb4"/>
        <path id="Tracciato_60419" data-name="Tracciato 60419" d="M109.05,19.7v.834a.32.32,0,0,1-.32.321v0a.322.322,0,0,0,.322-.322V19.7a.322.322,0,0,0-.257-.315.321.321,0,0,1,.256.314" transform="translate(-89.242 -15.91)" fill="#006cb4"/>
        <path id="Tracciato_60420" data-name="Tracciato 60420" d="M108.731,72.668a.318.318,0,0,0,.179-.055.32.32,0,0,1-.179.055Z" transform="translate(-89.242 -59.598)" fill="#006cb4"/>
        <path id="Tracciato_60421" data-name="Tracciato 60421" d="M122.149,56.559c-.209,0-.422.008-.636.023a9.564,9.564,0,0,1-8.372,8.371c-.015.213-.022.426-.022.636a9.03,9.03,0,1,0,9.03-9.03m4.611,9.753-.822,0,.528.618a.261.261,0,0,1-.4.339l-.819-.959-2.068-.005,1.46,1.467,1.257-.094a.261.261,0,1,1,.039.52l-.811.06.579.582a.321.321,0,0,1-.456.454l-.58-.583-.064.811a.261.261,0,0,1-.26.241h-.02a.261.261,0,0,1-.24-.28l.1-1.257-1.459-1.466-.005,2.07.955.823a.261.261,0,0,1-.341.4l-.616-.531,0,.821a.321.321,0,1,1-.643,0l0-.822-.619.528a.261.261,0,0,1-.339-.4l.959-.819,0-2.069-1.466,1.46.093,1.257a.261.261,0,0,1-.241.279h-.02a.261.261,0,0,1-.259-.242l-.06-.811-.582.579a.322.322,0,0,1-.454-.456l.583-.58-.811-.064a.261.261,0,0,1,.041-.52l1.257.1,1.465-1.458-2.069-.005-.823.955a.261.261,0,1,1-.4-.341l.531-.616-.821,0a.322.322,0,0,1,0-.643l.822,0-.528-.618a.261.261,0,0,1,.4-.339l.819.959,2.067.005-1.459-1.466-1.257.094h-.02a.261.261,0,0,1-.019-.521l.811-.06-.579-.582a.322.322,0,0,1,.456-.454l.58.583.063-.811a.261.261,0,0,1,.52.041l-.1,1.257,1.458,1.465.005-2.069-.955-.823a.261.261,0,1,1,.341-.4l.616.531,0-.821a.321.321,0,0,1,.643,0l0,.822.619-.528a.261.261,0,0,1,.339.4l-.959.819-.005,2.068,1.467-1.46-.094-1.257a.261.261,0,1,1,.52-.039l.061.811.582-.58a.321.321,0,0,1,.453.456l-.583.58.811.064a.261.261,0,0,1-.021.521h-.02l-1.257-.1-1.466,1.459,2.069.005.822-.955a.261.261,0,1,1,.4.341l-.53.616.821,0a.322.322,0,0,1,0,.643" transform="translate(-92.844 -46.422)" fill="#006cb4"/>
        <path id="Tracciato_60422" data-name="Tracciato 60422" d="M74.6,121.512a9.565,9.565,0,0,1-8.372-8.372c-.214-.015-.426-.023-.635-.023a9.03,9.03,0,1,0,9.029,9.03c0-.209-.008-.422-.022-.636m-9.632,6.076h0c-.141-.012-.5-.071-.63-.1h0a2.08,2.08,0,0,1,.266-2.737l.085-.113c.356-.464.765-.9,1.151-1.335a7.709,7.709,0,0,0,1.445-2.115c.025-.061.048-.123.069-.184a3.7,3.7,0,0,1,1.272,2.156,3.488,3.488,0,0,1-3.657,4.428m1.381-6.549c-.917,2.275-4.152,3.264-2.57,6.227a3.487,3.487,0,0,1-1.981-3.455,5.186,5.186,0,0,1,2.022-3.248,4.344,4.344,0,0,0,1.492-3.871c1.888,1.761,1.521,3.145,1.037,4.346" transform="translate(-46.422 -92.843)" fill="#006cb4"/>
        <path id="Tracciato_60423" data-name="Tracciato 60423" d="M87.789,154.661a5.187,5.187,0,0,0-2.022,3.248,5.29,5.29,0,0,1,2.022-3.248" transform="translate(-70.394 -126.94)" fill="#006cb4"/>
        <path id="Tracciato_60424" data-name="Tracciato 60424" d="M9.03,56.559a9.03,9.03,0,1,0,0,18.059c.209,0,.422-.008.636-.023a9.565,9.565,0,0,1,8.371-8.372c.015-.213.023-.426.023-.636a9.04,9.04,0,0,0-9.03-9.03m1.838,12.553h0A2.885,2.885,0,0,1,6.4,65.71L9.03,60.866l2.634,4.843a2.885,2.885,0,0,1-.8,3.4" transform="translate(0 -46.422)" fill="#006cb4"/>
        <path id="Tracciato_60425" data-name="Tracciato 60425" d="M49.926,110.886c-.007-.049-.016-.1-.026-.146l-.009-.036c0-.012-.006-.024-.009-.036s-.014-.047-.021-.071-.016-.047-.025-.07l-.014-.034-.008-.017,0-.008,0-.009,0,.009,0,.008-.008.017-.015.033-.015.033-.015.033-.015.032-.015.032-.029.063-.015.031-.015.031-.007.015-.008.015-.015.03c-.02.04-.039.08-.06.119-.08.155-.163.3-.251.438a4.674,4.674,0,0,1-.279.389,4.17,4.17,0,0,1-.659.66,4.443,4.443,0,0,1-.389.279c-.137.088-.282.172-.438.251l-.119.059-.03.015-.015.008-.015.007-.031.015-.031.015-.063.029-.032.015-.032.015-.065.03-.033.015-.017.008-.008,0-.008,0,.008,0,.009,0,.017.008.035.014.07.025.018.006.018.005.036.01.035.009.036.009c.048.011.1.019.146.026s.1.011.148.013a2.013,2.013,0,0,0,.6-.062,2.231,2.231,0,0,0,.564-.231,2.371,2.371,0,0,0,.862-.861,2.219,2.219,0,0,0,.231-.564,2.009,2.009,0,0,0,.062-.6q0-.074-.013-.148" transform="translate(-38.616 -90.661)" fill="#006cb4"/>
      </g>
    </g>
  </g>
</svg>
