<svg xmlns="http://www.w3.org/2000/svg" width="33" height="24" viewBox="0 0 33 24">
  <g id="Raggruppa_21052" data-name="Raggruppa 21052" transform="translate(-27.668 -215)">
    <path id="Icon_awesome-hand-point-right" data-name="Icon awesome-hand-point-right" d="M17.333,9.092a1.527,1.527,0,0,1-1.517,1.484h-3.38a1.665,1.665,0,0,1-.213,2.4,1.551,1.551,0,0,1-.557,2.11c.3,1.664-.743,2.413-2.458,2.413-.093,0-.449-.007-.542-.007-2.1.006-2.6-1.052-4.189-1.3a.812.812,0,0,1-.686-.8V9.587h0A1.625,1.625,0,0,1,4.755,8.1c.978-.44,3.23-1.66,3.64-2.618A1.443,1.443,0,0,1,9.75,4.5a1.626,1.626,0,0,1,1.494,2.265,4.6,4.6,0,0,1-.479.844h5.052a1.551,1.551,0,0,1,1.517,1.484ZM3.25,9.1v6.5a.812.812,0,0,1-.812.813H.813A.812.812,0,0,1,0,15.6V9.1a.812.812,0,0,1,.813-.812H2.438A.812.812,0,0,1,3.25,9.1ZM2.3,14.792a.677.677,0,1,0-.677.677A.677.677,0,0,0,2.3,14.792Z" transform="translate(31.502 213.5)" fill="#0060c1"/>
    <path id="Icon_awesome-plus" data-name="Icon awesome-plus" d="M10.461,6.676H6.84V3.055a.8.8,0,0,0-.8-.8h-.8a.8.8,0,0,0-.8.8V6.676H.8a.8.8,0,0,0-.8.8v.8a.8.8,0,0,0,.8.8H4.426v3.621a.8.8,0,0,0,.8.8h.8a.8.8,0,0,0,.8-.8V9.09h3.621a.8.8,0,0,0,.8-.8v-.8A.8.8,0,0,0,10.461,6.676Z" transform="translate(46.836 223.117)" fill="#0060c1"/>
    <g id="Rettangolo_146365" data-name="Rettangolo 146365" transform="translate(27.668 215)" fill="none" stroke="#0060c1" stroke-width="2">
      <rect width="33" height="24" rx="4" stroke="none"/>
      <rect x="1" y="1" width="31" height="22" rx="3" fill="none"/>
    </g>
  </g>
</svg>
