<svg xmlns="http://www.w3.org/2000/svg" width="29.714" height="26" viewBox="0 0 29.714 26">
  <path id="Icon_awesome-briefcase" data-name="Icon awesome-briefcase" d="M18.571,19.893a.928.928,0,0,1-.929.929H12.071a.928.928,0,0,1-.929-.929V17.107H0v8.357A2.856,2.856,0,0,0,2.786,28.25H26.929a2.856,2.856,0,0,0,2.786-2.786V17.107H18.571ZM26.929,7.821H22.286V5.036A2.856,2.856,0,0,0,19.5,2.25H10.214A2.856,2.856,0,0,0,7.429,5.036V7.821H2.786A2.856,2.856,0,0,0,0,10.607V15.25H29.714V10.607A2.856,2.856,0,0,0,26.929,7.821Zm-8.357,0H11.143V5.964h7.429Z" transform="translate(0 -2.25)" fill="#0060c1"/>
</svg>
