<svg xmlns="http://www.w3.org/2000/svg" width="32.662" height="32.662" viewBox="0 0 32.662 32.662">
  <path id="Icon_awesome-file-import" data-name="Icon awesome-file-import" d="M1.021,18.372A1.024,1.024,0,0,0,0,19.393v2.041a1.024,1.024,0,0,0,1.021,1.021H8.166V18.372ZM32.216,6.7,25.97.447A1.53,1.53,0,0,0,24.886,0H24.5V8.166h8.166V7.776A1.526,1.526,0,0,0,32.216,6.7Zm-9.76,1.978V0H9.7A1.527,1.527,0,0,0,8.166,1.531V18.372h8.166V14.213a1.023,1.023,0,0,1,1.748-.721l6.1,6.156a1.086,1.086,0,0,1,0,1.531l-6.105,6.15a1.023,1.023,0,0,1-1.748-.721V22.455H8.166v8.676A1.527,1.527,0,0,0,9.7,32.662H31.131a1.527,1.527,0,0,0,1.531-1.531V10.207H23.986A1.536,1.536,0,0,1,22.455,8.676Z" fill="#0060c1"/>
</svg>
