<svg xmlns="http://www.w3.org/2000/svg" width="51.698" height="42.104" viewBox="0 0 51.698 42.104">
  <g id="Raggruppa_21047" data-name="Raggruppa 21047" transform="translate(-244 -328.828)">
    <path id="Icon_awesome-boxes" data-name="Icon awesome-boxes" d="M25.957,13.349H22.249V17.8l-1.483-.987-1.483.987v-4.45H15.574a.744.744,0,0,0-.742.742v8.9a.744.744,0,0,0,.742.742H25.957a.744.744,0,0,0,.742-.742v-8.9A.744.744,0,0,0,25.957,13.349Zm-17.8-2.966H18.541a.744.744,0,0,0,.742-.742V.742A.744.744,0,0,0,18.541,0H14.832V4.45l-1.483-.987-1.483.987V0H8.158a.744.744,0,0,0-.742.742v8.9A.744.744,0,0,0,8.158,10.383Zm2.966,2.966H7.416V17.8l-1.483-.987L4.45,17.8v-4.45H.742A.744.744,0,0,0,0,14.091v8.9a.744.744,0,0,0,.742.742H11.124a.744.744,0,0,0,.742-.742v-8.9A.744.744,0,0,0,11.124,13.349Z" transform="translate(269 345.221)" fill="#fff"/>
    <g id="Icon_ionic-ios-man" data-name="Icon ionic-ios-man" transform="translate(244 328.828)">
      <path id="Tracciato_65005" data-name="Tracciato 65005" d="M18.01,7.556H18a3.216,3.216,0,1,1,3.23-3.216A3.224,3.224,0,0,1,18.01,7.556Z" transform="translate(-9.938 -1.125)" fill="#fff"/>
      <path id="Tracciato_65006" data-name="Tracciato 65006" d="M15.607,43.162c-1.022,0-1.917-.967-1.917-2.8l.071-25.557h-.71v9.667a2.64,2.64,0,0,1-.454,1.685,1.283,1.283,0,0,1-2.158,0,2.62,2.62,0,0,1-.454-1.685V13.278a6.348,6.348,0,0,1,.98-3.535,3.356,3.356,0,0,1,2.769-1.657h8.682a3.345,3.345,0,0,1,2.769,1.666,6.317,6.317,0,0,1,.98,3.526V24.473a2.587,2.587,0,0,1-.469,1.685,1.346,1.346,0,0,1-2.2,0,2.587,2.587,0,0,1-.469-1.685V14.806h-.639V40.363c0,1.814-.951,2.8-1.973,2.8-.951,0-1.867-.856-1.945-2.743v-13h-.852V40.391C17.566,42.2,16.636,43.162,15.607,43.162Z" transform="translate(-9.984 -1.058)" fill="#fff"/>
    </g>
  </g>
</svg>
