<svg xmlns="http://www.w3.org/2000/svg" width="32.781" height="27.725" viewBox="0 0 32.781 27.725">
  <g id="noun_Work_1819106" transform="translate(0 1)">
    <g id="Tracciato_60140" data-name="Tracciato 60140" transform="translate(0 3.179)" fill="none">
      <path d="M3.585,0H29.2a3.584,3.584,0,0,1,3.585,3.583v16.38A3.584,3.584,0,0,1,29.2,23.547H3.585A3.584,3.584,0,0,1,0,19.963V3.583A3.584,3.584,0,0,1,3.585,0Z" stroke="none"/>
      <path d="M 3.585428237915039 2 C 2.711217880249023 2 1.999998092651367 2.710210800170898 1.999998092651367 3.583179473876953 L 1.999998092651367 19.96342086791992 C 1.999998092651367 20.83638954162598 2.711217880249023 21.54660034179688 3.585428237915039 21.54660034179688 L 29.19560813903809 21.54660034179688 C 30.0698184967041 21.54660034179688 30.78103828430176 20.83638954162598 30.78103828430176 19.96342086791992 L 30.78103828430176 3.583179473876953 C 30.78103828430176 2.710210800170898 30.0698184967041 2 29.19560813903809 2 L 3.585428237915039 2 M 3.585428237915039 0 L 29.19560813903809 0 C 31.17577743530273 0 32.78103637695312 1.604240417480469 32.78103637695312 3.583179473876953 L 32.78103637695312 19.96342086791992 C 32.78103637695312 21.94235992431641 31.17577743530273 23.54660034179688 29.19560813903809 23.54660034179688 L 3.585428237915039 23.54660034179688 C 1.605247497558594 23.54660034179688 0 21.94235992431641 0 19.96342086791992 L 0 3.583179473876953 C 0 1.604240417480469 1.605247497558594 0 3.585428237915039 0 Z" stroke="none" fill="#b8191a"/>
    </g>
    <path id="Tracciato_60120" data-name="Tracciato 60120" d="M21.795,16.523V13.156H36.342v3.367" transform="translate(-12.926 -13.156)" fill="none" stroke="#b8191a" stroke-linecap="round" stroke-linejoin="round" stroke-width="2"/>
    <g id="Rettangolo_146012" data-name="Rettangolo 146012" transform="translate(13.818 11.851)" fill="#b8191a" stroke="#b8191a" stroke-width="2">
      <rect width="5.146" height="7.204" rx="2.573" stroke="none"/>
      <rect x="1" y="1" width="3.146" height="5.204" rx="1.573" fill="none"/>
    </g>
    <path id="Tracciato_60121" data-name="Tracciato 60121" d="M42.82,25.214s.32,7.489,15.2,7.489,14.9-7.489,14.9-7.489" transform="translate(-41.489 -16.887)" fill="none" stroke="#b8191a" stroke-width="2"/>
  </g>
</svg>
