<svg xmlns="http://www.w3.org/2000/svg" width="92.273" height="48" viewBox="0 0 92.273 48">
  <g id="Raggruppa_20871" data-name="Raggruppa 20871" transform="translate(-145.227 -3.486)">
    <path id="Tracciato_60413" data-name="Tracciato 60413" d="M35.079,8.917a.575.575,0,0,0-.32-.518l-4.18-2.058L30.571,2.5a.708.708,0,0,0-.71-.707L27.545,1.8a.708.708,0,0,0-.707.71l0,1.994L17.815.058A.573.573,0,0,0,17.546,0h-.009a.572.572,0,0,0-.269.059L.36,8.473a.572.572,0,0,0-.282.315A.557.557,0,0,0,0,9.07v8.007a.563.563,0,0,0,1.127,0v-7.7L17.545,1.208,33.976,9.3v7.781a.563.563,0,0,0,1.127,0V9.07a.557.557,0,0,0-.024-.153" transform="translate(145.227 11.454)" fill="#fff"/>
    <text id="CIT" transform="translate(185.5 35.486)" fill="#fff" font-size="30" font-family="OpenSans-Bold, Open Sans" font-weight="700"><tspan x="0" y="0">CIT</tspan></text>
    <path id="Tracciato_60414" data-name="Tracciato 60414" d="M62.26,0a5.707,5.707,0,0,0-5.7,5.7c0,.132,0,.266.014.4a6.038,6.038,0,0,1,5.285,5.285c.135.01.269.014.4.014a5.7,5.7,0,1,0,0-11.4m1.688,3.449.372-.372a.2.2,0,1,1,.286.286l-.372.372a.2.2,0,0,1-.286-.286M62.26,2.392a.2.2,0,0,1,.2-.2.2.2,0,0,1,.041,0,.2.2,0,0,1,.162.2v.526a.2.2,0,1,1-.406,0Zm-1.94.685a.2.2,0,0,1,.287,0l.372.372a.2.2,0,0,1-.287.287l-.372-.372a.2.2,0,0,1,0-.287m-.685,2.346a.2.2,0,0,1,0-.406h.526a.2.2,0,1,1,0,.406Zm1.344,1.568-.372.372a.2.2,0,0,1-.287-.287l.372-.372a.2.2,0,0,1,.287.287m1.687,1.057a.2.2,0,0,1-.406,0V7.522a.2.2,0,0,1,.406,0Zm-.2-.987A1.821,1.821,0,1,1,64.284,5.24a1.821,1.821,0,0,1-1.821,1.821m2.143.3a.2.2,0,0,1-.286,0l-.372-.372a.2.2,0,0,1,.286-.286l.372.372a.2.2,0,0,1,0,.286m.685-1.941h-.526a.2.2,0,0,1,0-.4h.526a.2.2,0,0,1,0,.4" transform="translate(100.377 17.141)" fill="#fff"/>
    <path id="Tracciato_60421" data-name="Tracciato 60421" d="M118.82,56.559c-.132,0-.267,0-.4.014a6.038,6.038,0,0,1-5.285,5.285c-.009.135-.014.269-.014.4a5.7,5.7,0,1,0,5.7-5.7m2.911,6.157h-.519l.334.39a.165.165,0,1,1-.25.214l-.517-.605-1.306,0,.922.926.793-.059a.165.165,0,1,1,.024.328l-.512.038.366.368a.2.2,0,0,1-.288.286l-.366-.368-.04.512a.165.165,0,0,1-.164.152h-.013a.165.165,0,0,1-.151-.177l.062-.794L119.184,63l0,1.307.6.519a.165.165,0,0,1-.215.25l-.389-.335v.518a.2.2,0,1,1-.406,0v-.519l-.391.334a.165.165,0,0,1-.214-.25l.606-.517,0-1.306-.926.921.059.794a.165.165,0,0,1-.152.176h-.013a.165.165,0,0,1-.164-.153l-.038-.512-.368.366a.2.2,0,0,1-.286-.288l.368-.366-.512-.04a.165.165,0,0,1,.026-.328l.794.062.925-.921-1.306,0-.519.6a.165.165,0,1,1-.25-.215l.335-.389h-.518a.2.2,0,0,1,0-.406h.519l-.333-.39a.165.165,0,0,1,.25-.214l.517.605,1.305,0-.921-.926-.793.059h-.013a.165.165,0,0,1-.012-.329l.512-.038L116.9,60.7a.2.2,0,0,1,.288-.286l.366.368.04-.512a.165.165,0,0,1,.328.026l-.062.794.921.925,0-1.306-.6-.519a.165.165,0,0,1,.215-.25l.389.335v-.518a.2.2,0,0,1,.406,0v.519l.391-.334a.165.165,0,0,1,.214.25l-.605.517,0,1.305.926-.922-.059-.794a.165.165,0,1,1,.328-.024l.038.512.368-.366a.2.2,0,0,1,.286.288l-.368.366.512.04a.165.165,0,0,1-.013.329h-.013l-.794-.062-.925.921,1.307,0,.519-.6a.165.165,0,1,1,.25.215l-.335.389h.518a.2.2,0,0,1,0,.406" transform="translate(50.217 -33.018)" fill="#fff"/>
    <path id="Tracciato_60422" data-name="Tracciato 60422" d="M67.947,118.418a6.038,6.038,0,0,1-5.285-5.285c-.135-.009-.269-.014-.4-.014a5.7,5.7,0,1,0,5.7,5.7c0-.132,0-.267-.014-.4m-6.081,3.836h0c-.089-.008-.313-.045-.4-.062h0a1.313,1.313,0,0,1,.168-1.728l.054-.071c.225-.293.483-.567.727-.843a4.867,4.867,0,0,0,.912-1.335q.024-.058.043-.116a2.335,2.335,0,0,1,.8,1.361,2.2,2.2,0,0,1-2.309,2.8m.872-4.134c-.579,1.436-2.621,2.06-1.623,3.932a2.2,2.2,0,0,1-1.25-2.181,3.274,3.274,0,0,1,1.277-2.051,2.743,2.743,0,0,0,.942-2.444,2.138,2.138,0,0,1,.655,2.744" transform="translate(100.376 -83.177)" fill="#fff"/>
    <path id="Tracciato_60424" data-name="Tracciato 60424" d="M5.7,56.559a5.7,5.7,0,1,0,0,11.4c.132,0,.267,0,.4-.014a6.038,6.038,0,0,1,5.285-5.285c.01-.135.014-.269.014-.4a5.707,5.707,0,0,0-5.7-5.7m1.16,7.925h0a1.822,1.822,0,0,1-2.823-2.148L5.7,59.278l1.663,3.058a1.822,1.822,0,0,1-.5,2.148" transform="translate(150.536 -33.018)" fill="#fff"/>
    <text id="combusty" transform="translate(187.5 48.486)" fill="#fff" font-size="10" font-family="OpenSans-Bold, Open Sans" font-weight="700"><tspan x="0" y="0">combusty</tspan></text>
  </g>
</svg>
