<svg id="Raggruppa_11936" data-name="Raggruppa 11936" xmlns="http://www.w3.org/2000/svg" width="37.18" height="54.221" viewBox="0 0 37.18 54.221">
  <g id="Tracciato_60216" data-name="Tracciato 60216" fill="none">
    <path d="M3.38,0H33.8a3.248,3.248,0,0,1,3.38,3.1V51.123a3.248,3.248,0,0,1-3.38,3.1H3.38A3.248,3.248,0,0,1,0,51.123V3.1A3.248,3.248,0,0,1,3.38,0Z" stroke="none"/>
    <path d="M 3.380012512207031 2.000003814697266 C 2.631969451904297 2.000003814697266 2 2.502983093261719 2 3.098354339599609 L 2 51.12278366088867 C 2 51.71814346313477 2.631969451904297 52.22112274169922 3.380012512207031 52.22112274169922 L 33.8001823425293 52.22112274169922 C 34.54823303222656 52.22112274169922 35.18020248413086 51.71814346313477 35.18020248413086 51.12278366088867 L 35.18020248413086 3.098354339599609 C 35.18020248413086 2.502983093261719 34.54823303222656 2.000003814697266 33.8001823425293 2.000003814697266 L 3.380012512207031 2.000003814697266 M 3.380012512207031 3.814697265625e-06 L 33.8001823425293 3.814697265625e-06 C 35.66691207885742 3.814697265625e-06 37.18020248413086 1.387184143066406 37.18020248413086 3.098354339599609 L 37.18020248413086 51.12278366088867 C 37.18020248413086 52.83394241333008 35.66691207885742 54.22112274169922 33.8001823425293 54.22112274169922 L 3.380012512207031 54.22112274169922 C 1.513282775878906 54.22112274169922 0 52.83394241333008 0 51.12278366088867 L 0 3.098354339599609 C 0 1.387184143066406 1.513282775878906 3.814697265625e-06 3.380012512207031 3.814697265625e-06 Z" stroke="none" fill="#fff"/>
  </g>
  <g id="Rettangolo_146110" data-name="Rettangolo 146110" transform="translate(8.314 8.052)" fill="none" stroke="#fff" stroke-width="2">
    <rect width="8.947" height="8.947" rx="2" stroke="none"/>
    <rect x="1" y="1" width="6.947" height="6.947" rx="1" fill="none"/>
  </g>
  <g id="Rettangolo_146111" data-name="Rettangolo 146111" transform="translate(8.314 18.11)" fill="none" stroke="#fff" stroke-width="2">
    <rect width="8.947" height="8.947" rx="2" stroke="none"/>
    <rect x="1" y="1" width="6.947" height="6.947" rx="1" fill="none"/>
  </g>
  <g id="Rettangolo_146112" data-name="Rettangolo 146112" transform="translate(8.314 29.428)" fill="none" stroke="#fff" stroke-width="2">
    <rect width="8.947" height="8.947" rx="2" stroke="none"/>
    <rect x="1" y="1" width="6.947" height="6.947" rx="1" fill="none"/>
  </g>
  <g id="Rettangolo_146113" data-name="Rettangolo 146113" transform="translate(20.201 8.052)" fill="none" stroke="#fff" stroke-width="2">
    <rect width="8.947" height="8.947" rx="2" stroke="none"/>
    <rect x="1" y="1" width="6.947" height="6.947" rx="1" fill="none"/>
  </g>
  <g id="Rettangolo_146114" data-name="Rettangolo 146114" transform="translate(20.201 18.11)" fill="none" stroke="#fff" stroke-width="2">
    <rect width="8.947" height="8.947" rx="2" stroke="none"/>
    <rect x="1" y="1" width="6.947" height="6.947" rx="1" fill="none"/>
  </g>
  <g id="Rettangolo_146115" data-name="Rettangolo 146115" transform="translate(20.201 29.428)" fill="none" stroke="#fff" stroke-width="2">
    <rect width="8.947" height="8.947" rx="2" stroke="none"/>
    <rect x="1" y="1" width="6.947" height="6.947" rx="1" fill="none"/>
  </g>
  <g id="Rettangolo_146116" data-name="Rettangolo 146116" transform="translate(14.257 40.801)" fill="none" stroke="#fff" stroke-width="2">
    <rect width="8.947" height="13.421" rx="2" stroke="none"/>
    <rect x="1" y="1" width="6.947" height="11.421" rx="1" fill="none"/>
  </g>
</svg>
