<svg xmlns="http://www.w3.org/2000/svg" width="21" height="28" viewBox="0 0 21 28">
  <path id="Icon_awesome-file-pdf" data-name="Icon awesome-file-pdf" d="M9.948,14.005a5.276,5.276,0,0,1-.109-2.565C10.3,11.441,10.254,13.459,9.948,14.005Zm-.093,2.581A25.234,25.234,0,0,1,8.3,20.016a20.137,20.137,0,0,1,3.44-1.2A7.084,7.084,0,0,1,9.855,16.587ZM4.709,23.412c0,.044.722-.3,1.909-2.2A7.559,7.559,0,0,0,4.709,23.412ZM13.563,8.75H21V26.688A1.309,1.309,0,0,1,19.688,28H1.313A1.309,1.309,0,0,1,0,26.688V1.313A1.309,1.309,0,0,1,1.313,0H12.25V7.438A1.316,1.316,0,0,0,13.563,8.75Zm-.438,9.4A5.489,5.489,0,0,1,10.79,15.2a7.861,7.861,0,0,0,.339-3.511,1.37,1.37,0,0,0-2.614-.372,9.093,9.093,0,0,0,.443,4.211,51.353,51.353,0,0,1-2.231,4.692c-.005,0-.005.005-.011.005-1.482.76-4.025,2.434-2.98,3.719a1.7,1.7,0,0,0,1.176.547c.979,0,1.952-.984,3.341-3.38a31.173,31.173,0,0,1,4.32-1.269,8.288,8.288,0,0,0,3.5,1.066,1.416,1.416,0,0,0,1.077-2.373c-.76-.744-2.97-.53-4.025-.394Zm7.492-12.4L15.258.383A1.312,1.312,0,0,0,14.328,0H14V7h7V6.666A1.308,1.308,0,0,0,20.617,5.742ZM16.565,19.7c.224-.148-.137-.651-2.341-.492C16.253,20.076,16.565,19.7,16.565,19.7Z" fill="#b8191a"/>
</svg>
