<svg xmlns="http://www.w3.org/2000/svg" xmlns:xlink="http://www.w3.org/1999/xlink" width="32" height="20" viewBox="0 0 32 20"><defs><style>.a{fill:url(#a);}</style><linearGradient id="a" x1="0.957" y1="0.915" x2="0" y2="0.083" gradientUnits="objectBoundingBox"><stop offset="0" stop-color="#b8191a"/><stop offset="1" stop-color="#0060c1"/></linearGradient></defs><path class="a" d="M0,16a4,4,0,1,1,4,4A4,4,0,0,1,0,16Zm-12,0a4,4,0,0,1,4-4,4,4,0,0,1,4,4,4,4,0,0,1-4,4A4,4,0,0,1-12,16ZM12,4a4,4,0,1,1,4,4A4,4,0,0,1,12,4ZM0,4A4,4,0,1,1,4,8,4,4,0,0,1,0,4ZM-12,4A4,4,0,0,1-8,0,4,4,0,0,1-4,4,4,4,0,0,1-8,8,4,4,0,0,1-12,4Z" transform="translate(20 20.001) rotate(180)"/></svg>